<?xml version="1.0" encoding="UTF-8" standalone="no"?>
<svg
   xmlns:dc="http://purl.org/dc/elements/1.1/"
   xmlns:cc="http://creativecommons.org/ns#"
   xmlns:rdf="http://www.w3.org/1999/02/22-rdf-syntax-ns#"
   xmlns:svg="http://www.w3.org/2000/svg"
   xmlns="http://www.w3.org/2000/svg"
   xmlns:sodipodi="http://sodipodi.sourceforge.net/DTD/sodipodi-0.dtd"
   xmlns:inkscape="http://www.inkscape.org/namespaces/inkscape"
   version="1.1"
   width="236.62488"
   height="252"
   id="svg124"
   viewBox="0 0 236.62488 252"
   sodipodi:docname="mtk-budapest.svg"
   inkscape:version="0.92.4 (5da689c313, 2019-01-14)">
  <metadata
     id="metadata130">
    <rdf:RDF>
      <cc:Work
         rdf:about="">
        <dc:format>image/svg+xml</dc:format>
        <dc:type
           rdf:resource="http://purl.org/dc/dcmitype/StillImage" />
        <dc:title></dc:title>
      </cc:Work>
    </rdf:RDF>
  </metadata>
  <defs
     id="defs128" />
  <sodipodi:namedview
     pagecolor="#ffffff"
     bordercolor="#666666"
     borderopacity="1"
     objecttolerance="10"
     gridtolerance="10"
     guidetolerance="10"
     inkscape:pageopacity="0"
     inkscape:pageshadow="2"
     inkscape:window-width="1366"
     inkscape:window-height="705"
     id="namedview126"
     showgrid="false"
     fit-margin-top="1"
     fit-margin-bottom="1"
     fit-margin-right="1"
     fit-margin-left="1"
     inkscape:zoom="1.1212869"
     inkscape:cx="507.7636"
     inkscape:cy="188.60318"
     inkscape:window-x="-8"
     inkscape:window-y="-8"
     inkscape:window-maximized="1"
     inkscape:current-layer="svg124" />
  <g
     id="g260"
     transform="matrix(0.44096667,0,0,0.44096667,-12.935914,-59.62423)">
    <g
       id="Layer1001">
      <path
         d="m 119.6597,426.2165 c -28.3941,11.9716 -34.9958,32.5113 -32.4665,54.3284 28.3962,-5.2224 33.7804,-31.7071 32.4665,-54.3284 z"
         style="opacity:1;fill:#cbbf7b;fill-opacity:1;stroke:none;stroke-opacity:1;paint-order:markers stroke fill"
         id="path2"
         inkscape:connector-curvature="0" />
      <path
         d="m 147.0894,513.477 c -22.6128,16.7489 -23.9433,36.1068 -18.5743,53.5637 21.9469,-9.5217 24.4458,-33.14 18.5743,-53.5637 z"
         style="opacity:1;fill:#cbbf7b;fill-opacity:1;stroke:none;stroke-opacity:1;paint-order:markers stroke fill"
         id="path4"
         inkscape:connector-curvature="0" />
      <path
         d="m 116.1978,385.7516 c -25.4369,8.1209 -32.7434,21.2738 -33.5447,41.6756 23.8371,-1.4596 31.9145,-21.9072 33.5447,-41.6756 z"
         style="opacity:1;fill:#cbbf7b;fill-opacity:1;stroke:none;stroke-opacity:1;paint-order:markers stroke fill"
         id="path6"
         inkscape:connector-curvature="0" />
      <path
         d="m 126.564,361.0006 c -25.5122,-3.0015 -35.667,7.7511 -41.8668,23.2664 21.5676,6.4112 34.454,-3.2182 41.8668,-23.2664 z"
         style="opacity:1;fill:#cbbf7b;fill-opacity:1;stroke:none;stroke-opacity:1;paint-order:markers stroke fill"
         id="path8"
         inkscape:connector-curvature="0" />
      <path
         d="m 129.9414,331.8782 c -17.1581,-2.3692 -28.7119,6.1178 -34.4437,17.6179 14.6034,0.8604 27.1963,-1.4199 34.4437,-17.6179 z"
         style="opacity:1;fill:#cbbf7b;fill-opacity:1;stroke:none;stroke-opacity:1;paint-order:markers stroke fill"
         id="path10"
         inkscape:connector-curvature="0" />
      <path
         d="m 122.7735,300.1945 c -20.9777,4.78 -22.9753,18.5536 -22.9806,31.4029 14.3871,-6.205 21.0119,-12.7397 22.9806,-31.4029 z"
         style="opacity:1;fill:#cbbf7b;fill-opacity:1;stroke:none;stroke-opacity:1;paint-order:markers stroke fill"
         id="path12"
         inkscape:connector-curvature="0" />
      <path
         d="m 79.6645,302.1903 c -5.1721,19.2554 1.0715,33.7983 10.7259,42.9041 3.583,-11.5826 3.2293,-24.6412 -10.7259,-42.9041 z"
         style="opacity:1;fill:#cbbf7b;fill-opacity:1;stroke:none;stroke-opacity:1;paint-order:markers stroke fill"
         id="path14"
         inkscape:connector-curvature="0" />
      <path
         d="m 61.6247,333.8277 c -4.1188,22.9992 4.476,36.9781 16.1901,46.4667 2.0439,-13.2394 0.0612,-29.8669 -16.1901,-46.4667 z"
         style="opacity:1;fill:#cbbf7b;fill-opacity:1;stroke:none;stroke-opacity:1;paint-order:markers stroke fill"
         id="path16"
         inkscape:connector-curvature="0" />
      <path
         d="m 39.2447,371.5226 c 1.5591,29.1477 17.1797,46.3837 32.8357,53.4235 1.2264,-18.364 -10.8568,-39.6349 -32.8357,-53.4235 z"
         style="opacity:1;fill:#cbbf7b;fill-opacity:1;stroke:none;stroke-opacity:1;paint-order:markers stroke fill"
         id="path18"
         inkscape:connector-curvature="0" />
      <path
         d="m 31.6031,426.1453 c 5.4304,32.1671 22.9181,50.2435 45.5243,54.7565 -2.3903,-29.5594 -19.1708,-45.2745 -45.5243,-54.7565 z"
         style="opacity:1;fill:#cbbf7b;fill-opacity:1;stroke:none;stroke-opacity:1;paint-order:markers stroke fill"
         id="path20"
         inkscape:connector-curvature="0" />
      <path
         d="m 37.4082,492.8137 c 11.3599,32.5053 35.029,42.8348 58.027,41.2527 -9.6967,-26.4011 -25.6393,-39.8642 -58.027,-41.2527 z"
         style="opacity:1;fill:#cbbf7b;fill-opacity:1;stroke:none;stroke-opacity:1;paint-order:markers stroke fill"
         id="path22"
         inkscape:connector-curvature="0" />
      <path
         d="m 60.708,555.5366 c 16.8784,21.6978 38.5945,28.1504 58.1164,15.2905 C 105.2449,553.4384 87.3547,546.041 60.708,555.5366 Z"
         style="opacity:1;fill:#cbbf7b;fill-opacity:1;stroke:none;stroke-opacity:1;paint-order:markers stroke fill"
         id="path24"
         inkscape:connector-curvature="0" />
      <path
         d="m 96.8375,612.9278 c 13.0882,6.8969 23.7068,8.7598 33.4917,7.3301 10.5432,-1.5403 18.8682,-7.4142 24.0858,-16.12 -20.7601,-10.2308 -35.7418,-10.0505 -57.5775,8.7899 z"
         style="opacity:1;fill:#cbbf7b;fill-opacity:1;stroke:none;stroke-opacity:1;paint-order:markers stroke fill"
         id="path26"
         inkscape:connector-curvature="0" />
      <path
         d="m 157.2201,546.9206 c -13.4048,23.068 -9.3222,38.7882 0.5979,54.0571 14.9042,-16.3399 10.3222,-34.615 -0.5979,-54.0571 z"
         style="opacity:1;fill:#cbbf7b;fill-opacity:1;stroke:none;stroke-opacity:1;paint-order:markers stroke fill"
         id="path28"
         inkscape:connector-curvature="0" />
      <path
         d="m 135.5284,463.9862 c -28.8014,16.4104 -33.5666,42.5552 -29.2186,66.7099 28.3617,-9.1184 35.003,-41.1011 29.2186,-66.7099 z"
         style="opacity:1;fill:#cbbf7b;fill-opacity:1;stroke:none;stroke-opacity:1;paint-order:markers stroke fill"
         id="path30"
         inkscape:connector-curvature="0" />
      <path
         d="M 133.2418,585.1086 C 120.6881,570.159 109.4317,553.1291 100.2145,534.5393 84.788,503.4265 75.9109,471.2997 75.5742,436.5911 75.2233,400.6098 81.9894,366.429 101.2402,326.8624 h 1.4884 c -17.6174,35.1313 -24.5399,70.2642 -23.7222,104.506 0.3674,15.4073 2.0564,31.3104 5.3148,46.3695 4.1859,19.3451 10.9631,38.1412 19.8837,55.9055 8.4764,16.8806 19.5484,33.6311 34.0605,50.5349 z"
         style="opacity:1;fill:#cbbf7b;fill-opacity:1;stroke:none;stroke-opacity:1;paint-order:markers stroke fill"
         id="path32"
         inkscape:connector-curvature="0" />
    </g>
    <g
       id="Layer1002">
      <path
         d="m 475.6159,426.2165 c 28.3941,11.9716 34.9957,32.5113 32.4665,54.3284 -28.3962,-5.2224 -33.7804,-31.7071 -32.4665,-54.3284 z"
         style="opacity:1;fill:#cbbf7b;fill-opacity:1;stroke:none;stroke-opacity:1;paint-order:markers stroke fill"
         id="path35"
         inkscape:connector-curvature="0" />
      <path
         d="m 448.1862,513.477 c 22.6128,16.7489 23.9433,36.1068 18.5743,53.5637 -21.9469,-9.5217 -24.4458,-33.14 -18.5743,-53.5637 z"
         style="opacity:1;fill:#cbbf7b;fill-opacity:1;stroke:none;stroke-opacity:1;paint-order:markers stroke fill"
         id="path37"
         inkscape:connector-curvature="0" />
      <path
         d="m 479.0778,385.7516 c 25.4369,8.1209 32.7434,21.2738 33.5447,41.6756 -23.8371,-1.4596 -31.9145,-21.9072 -33.5447,-41.6756 z"
         style="opacity:1;fill:#cbbf7b;fill-opacity:1;stroke:none;stroke-opacity:1;paint-order:markers stroke fill"
         id="path39"
         inkscape:connector-curvature="0" />
      <path
         d="m 468.7116,361.0006 c 25.5121,-3.0015 35.667,7.7511 41.8668,23.2664 -21.5676,6.4112 -34.454,-3.2182 -41.8668,-23.2664 z"
         style="opacity:1;fill:#cbbf7b;fill-opacity:1;stroke:none;stroke-opacity:1;paint-order:markers stroke fill"
         id="path41"
         inkscape:connector-curvature="0" />
      <path
         d="m 465.3342,331.8782 c 17.1581,-2.3692 28.7119,6.1178 34.4437,17.6179 -14.6034,0.8604 -27.1963,-1.4199 -34.4437,-17.6179 z"
         style="opacity:1;fill:#cbbf7b;fill-opacity:1;stroke:none;stroke-opacity:1;paint-order:markers stroke fill"
         id="path43"
         inkscape:connector-curvature="0" />
      <path
         d="m 472.5021,300.1945 c 20.9777,4.78 22.9753,18.5536 22.9806,31.4029 -14.3871,-6.205 -21.0119,-12.7397 -22.9806,-31.4029 z"
         style="opacity:1;fill:#cbbf7b;fill-opacity:1;stroke:none;stroke-opacity:1;paint-order:markers stroke fill"
         id="path45"
         inkscape:connector-curvature="0" />
      <path
         d="m 515.6111,302.1903 c 5.1721,19.2554 -1.0715,33.7983 -10.7259,42.9041 -3.5831,-11.5826 -3.2293,-24.6412 10.7259,-42.9041 z"
         style="opacity:1;fill:#cbbf7b;fill-opacity:1;stroke:none;stroke-opacity:1;paint-order:markers stroke fill"
         id="path47"
         inkscape:connector-curvature="0" />
      <path
         d="m 533.6509,333.8277 c 4.1188,22.9992 -4.476,36.9781 -16.1901,46.4667 -2.0439,-13.2394 -0.0612,-29.8669 16.1901,-46.4667 z"
         style="opacity:1;fill:#cbbf7b;fill-opacity:1;stroke:none;stroke-opacity:1;paint-order:markers stroke fill"
         id="path49"
         inkscape:connector-curvature="0" />
      <path
         d="m 556.0309,371.5226 c -1.5591,29.1477 -17.1797,46.3837 -32.8357,53.4235 -1.2264,-18.364 10.8568,-39.6349 32.8357,-53.4235 z"
         style="opacity:1;fill:#cbbf7b;fill-opacity:1;stroke:none;stroke-opacity:1;paint-order:markers stroke fill"
         id="path51"
         inkscape:connector-curvature="0" />
      <path
         d="m 563.6725,426.1453 c -5.4304,32.1671 -22.9181,50.2435 -45.5243,54.7565 2.3903,-29.5594 19.1708,-45.2745 45.5243,-54.7565 z"
         style="opacity:1;fill:#cbbf7b;fill-opacity:1;stroke:none;stroke-opacity:1;paint-order:markers stroke fill"
         id="path53"
         inkscape:connector-curvature="0" />
      <path
         d="m 557.8674,492.8137 c -11.3599,32.5053 -35.029,42.8348 -58.027,41.2527 9.6967,-26.4011 25.6393,-39.8642 58.027,-41.2527 z"
         style="opacity:1;fill:#cbbf7b;fill-opacity:1;stroke:none;stroke-opacity:1;paint-order:markers stroke fill"
         id="path55"
         inkscape:connector-curvature="0" />
      <path
         d="m 534.5676,555.5366 c -16.8784,21.6978 -38.5945,28.1504 -58.1164,15.2905 13.5795,-17.3887 31.4697,-24.7861 58.1164,-15.2905 z"
         style="opacity:1;fill:#cbbf7b;fill-opacity:1;stroke:none;stroke-opacity:1;paint-order:markers stroke fill"
         id="path57"
         inkscape:connector-curvature="0" />
      <path
         d="m 498.4381,612.9278 c -13.0882,6.8969 -23.7068,8.7598 -33.4917,7.3301 -10.5432,-1.5403 -18.8682,-7.4142 -24.0858,-16.12 20.7601,-10.2308 35.7418,-10.0505 57.5775,8.7899 z"
         style="opacity:1;fill:#cbbf7b;fill-opacity:1;stroke:none;stroke-opacity:1;paint-order:markers stroke fill"
         id="path59"
         inkscape:connector-curvature="0" />
      <path
         d="m 438.0554,546.9206 c 13.4049,23.068 9.3223,38.7882 -0.5978,54.0571 -14.9042,-16.3399 -10.3222,-34.615 0.5978,-54.0571 z"
         style="opacity:1;fill:#cbbf7b;fill-opacity:1;stroke:none;stroke-opacity:1;paint-order:markers stroke fill"
         id="path61"
         inkscape:connector-curvature="0" />
      <path
         d="m 459.7472,463.9862 c 28.8014,16.4104 33.5666,42.5552 29.2185,66.7099 -28.3616,-9.1184 -35.0029,-41.1011 -29.2185,-66.7099 z"
         style="opacity:1;fill:#cbbf7b;fill-opacity:1;stroke:none;stroke-opacity:1;paint-order:markers stroke fill"
         id="path63"
         inkscape:connector-curvature="0" />
      <path
         d="m 462.0337,585.1086 c 12.5538,-14.9496 23.8102,-31.9795 33.0274,-50.5693 15.4265,-31.1128 24.3036,-63.2396 24.6403,-97.9482 0.3509,-35.9813 -6.4152,-70.1621 -25.666,-109.7287 h -1.4884 c 17.6174,35.1313 24.5399,70.2642 23.7222,104.506 -0.3674,15.4073 -2.0564,31.3104 -5.3148,46.3695 -4.1859,19.3451 -10.9631,38.1412 -19.8837,55.9055 -8.4764,16.8806 -19.5484,33.6311 -34.0605,50.5349 z"
         style="opacity:1;fill:#cbbf7b;fill-opacity:1;stroke:none;stroke-opacity:1;paint-order:markers stroke fill"
         id="path65"
         inkscape:connector-curvature="0" />
    </g>
    <path
       d="m 160.7236,230.1441 h 278.4663 v 207.6591 c 0,104.3776 -60.9176,158.4189 -138.5324,183.0865 C 228.5037,600.6969 160.7236,544.3575 160.7236,432.9792 Z"
       style="fill:#004c87;fill-rule:evenodd"
       id="path68"
       inkscape:connector-curvature="0" />
    <path
       d="m 175.2171,341.0364 v 91.9428 c 0,85.4083 54.0642,151.0548 123.7015,171.0272 73.4795,-23.6888 120.7219,-79.4753 120.7219,-166.2032 v -96.7668 z"
       style="fill:#ffffff;fill-rule:evenodd"
       id="path70"
       inkscape:connector-curvature="0" />
    <path
       d="m 185.3289,351.2371 v 81.494 c 0,14.2094 1.6522,28.1471 4.8196,41.5439 L 400.1703,351.4751 Z m 28.5377,178.1362 c 19.6411,29.6284 48.7029,52.573 84.9,63.7168 68.2749,-23.0463 110.4251,-78.3142 110.4251,-155.2869 v -26.8723 z"
       style="fill:#00b5e4;fill-rule:evenodd"
       id="path72"
       inkscape:connector-curvature="0" />
    <g
       id="Layer1003">
      <path
         d="m 172.6858,580.6688 h 26.7921 v 38.116 h -26.7921 z"
         style="fill:#00b5e4;fill-rule:evenodd"
         id="path74"
         inkscape:connector-curvature="0" />
      <path
         d="m 400.5374,581.1357 h 26.7921 v 37.9861 h -26.7921 z"
         style="fill:#00b5e4;fill-rule:evenodd"
         id="path76"
         inkscape:connector-curvature="0" />
      <path
         d="m 106.3001,580.7625 93.1778,-0.0906 -24.9319,8.2144 c 36.0427,33.234 81.9973,44.2127 123.3621,44.5245 41.3649,0.3117 91.7686,-12.5781 126.1991,-44.7115 l -23.6183,-7.5474 92.1686,-0.0873 -29.6288,29.1262 29.6288,29.8351 -71.0287,-0.3044 -0.0343,25.6657 c -34.1259,28.0122 -82.755,39.3543 -124.7023,39.0223 -39.9222,-0.3162 -82.5028,-8.4248 -120.1833,-39.0506 l -3e-4,-25.7031 -70.4085,0.0681 29.3618,-29.4977 z"
         style="fill:#004c87;fill-rule:evenodd"
         id="path78"
         inkscape:connector-curvature="0" />
      <path
         d="m 183.6631,636.1231 c 11.4688,14.2228 35.7154,30.408 57.8635,34.0132 v -8.6745 c -17.2735,-1.9219 -40.4686,-13.2447 -57.8635,-25.3387 z"
         style="fill:#00b5e4;fill-rule:evenodd"
         id="path80"
         inkscape:connector-curvature="0" />
      <path
         d="m 414.4377,636.1231 c -11.4688,14.2228 -35.7154,30.408 -57.8635,34.0132 v -8.6745 c 18.2038,-2.8522 40.4686,-13.2447 57.8635,-25.3387 z"
         style="fill:#00b5e4;fill-rule:evenodd"
         id="path82"
         inkscape:connector-curvature="0" />
    </g>
    <g
       id="Layer1004">
      <path
         d="m 257.5292,137.4803 6.8517,21.2263 22.3049,-0.0428 -18.0701,13.0751 6.9333,21.2 -18.0198,-13.1449 -18.0195,13.1449 6.9333,-21.2 -18.0701,-13.0751 22.3045,0.0428 z"
         style="opacity:1;fill:#cbbf7b;fill-opacity:1;stroke:none;stroke-opacity:1;paint-order:markers stroke fill"
         id="path85"
         inkscape:connector-curvature="0" />
      <path
         d="m 337.075,137.4803 6.8517,21.2263 22.3049,-0.0428 -18.0701,13.0751 6.9333,21.2 -18.0198,-13.1449 -18.0195,13.1449 6.9333,-21.2 -18.07,-13.0751 22.3045,0.0428 z"
         style="opacity:1;fill:#cbbf7b;fill-opacity:1;stroke:none;stroke-opacity:1;paint-order:markers stroke fill"
         id="path87"
         inkscape:connector-curvature="0" />
    </g>
    <g
       id="Layer1005">
      <path
         d="m 214.8897,290.9535 0.1072,-42.6069 h 15.5526 l 8.4609,13.71 8.6005,-13.71 h 15.2155 l 0.1086,42.6069 h -14.7048 l 0.0498,-19.9982 -9.6075,14.0787 -9.1293,-13.742 0.0513,19.6615 z"
         style="fill:#ffffff;fill-rule:evenodd"
         id="path90"
         inkscape:connector-curvature="0" />
      <path
         d="m 292.2231,290.9818 0.004,-30.0792 H 280.23 l -0.004,-12.5559 h 39.2578 l 0.004,12.5559 H 307.493 l -0.004,30.0792 z"
         style="fill:#ffffff;fill-rule:evenodd"
         id="path92"
         inkscape:connector-curvature="0" />
      <path
         d="m 336.2979,290.9966 v -42.65 h 14.6754 v 15.5539 l 11.6002,-15.5539 h 16.8707 l -14.5633,18.2585 15.0155,24.3915 h -17.165 l -7.9592,-13.3593 -3.7989,4.1999 v 9.1594 z"
         style="fill:#ffffff;fill-rule:evenodd"
         id="path94"
         inkscape:connector-curvature="0" />
    </g>
    <g
       id="Layer1006">
      <path
         d="m 185.459,309.2069 h 9.0001 c 3.1242,0 5.9643,1.4062 5.9643,4.794 0,1.8899 -1.3924,3.3423 -3.1108,3.9321 0,0.5518 4.5042,0.0432 4.1951,5.4941 -0.1831,3.2267 -3.7825,4.2955 -6.5063,4.2955 h -9.5424 z m 4.5819,14.745 h 2.9058 c 1.3563,0 3.3335,-0.273 3.3335,-1.993 0,-1.6691 -2.0119,-1.8852 -3.3048,-1.8852 h -2.9345 z m 0,-7.3118 h 2.6776 c 1.5839,0 2.5681,0.2487 2.5681,-1.7773 0,-1.9213 -1.0388,-1.8855 -2.5681,-1.8855 h -2.6776 z"
         style="fill:#ffffff;fill-rule:evenodd"
         id="path97"
         inkscape:connector-curvature="0" />
      <path
         d="m 214.9331,309.2069 h 5.256 v 11.123 c 0,2.0011 0.9502,3.4066 3.1964,3.4066 2.3034,0 3.1963,-1.3762 3.1963,-3.4066 v -11.123 h 5.2561 v 11.2308 c 0,4.8264 -3.0062,7.7965 -8.4524,7.7965 -5.4314,0 -8.4524,-2.7979 -8.4524,-7.7965 z"
         style="fill:#ffffff;fill-rule:evenodd"
         id="path99"
         inkscape:connector-curvature="0" />
      <path
         d="m 244.1324,327.7226 v -18.5157 h 7.6428 c 5.7941,0 9.9362,3.131 9.9362,9.4262 0,6.1257 -4.1125,9.0895 -9.9362,9.0895 z m 4.9191,-4.1876 h 2.6503 c 2.9786,0 5.0943,-1.6506 5.1988,-5.0883 0.093,-3.0628 -2.0922,-5.0522 -5.1988,-5.0522 h -2.6503 z"
         style="fill:#ffffff;fill-rule:evenodd"
         id="path101"
         inkscape:connector-curvature="0" />
      <path
         d="m 272.2523,327.7226 8.1163,-18.5157 h 4.746 l 8.2166,18.5157 h -5.5892 l -1.4449,-3.8759 -7.018,-3e-4 -1.1936,3.8762 z m 10.4425,-13.5056 -2.0132,5.5183 3.9343,0.0934 z"
         style="fill:#ffffff;fill-rule:evenodd"
         id="path103"
         inkscape:connector-curvature="0" />
      <path
         d="m 305.41,327.7226 v -18.5157 h 7.931 c 3.704,0 6.9401,2.5485 6.9401,6.6391 0,4.2311 -4.0616,6.6663 -6.9401,6.6663 h -3.0116 v 5.2103 z m 4.9194,-14.3682 v 5.0104 h 2.4585 c 1.4986,0 2.7396,-0.9158 2.7396,-2.5188 0,-1.6189 -1.327,-2.4916 -2.7396,-2.4916 z"
         style="fill:#ffffff;fill-rule:evenodd"
         id="path105"
         inkscape:connector-curvature="0" />
      <path
         d="m 335.2006,327.7226 v -18.5157 h 14.6823 v 4.1876 h -9.4262 v 2.9763 h 8.1528 v 4.1478 h -8.1528 v 3.0164 h 9.4262 v 4.1876 z"
         style="fill:#ffffff;fill-rule:evenodd"
         id="path107"
         inkscape:connector-curvature="0" />
      <path
         d="m 379.1234,311.1794 -2.4164,3.3062 c -1.3506,-1.1103 -2.5761,-1.7166 -4.3693,-1.7166 -1.3533,0 -2.1578,0.6532 -2.2225,1.4294 -0.0469,0.5616 0.2565,1.3611 1.8171,1.8006 1.1945,0.3364 3.4642,0.7543 4.6099,1.2569 2.3709,1.0405 3.4656,3.0635 3.2796,5.1947 -0.1888,2.1646 -1.2684,3.6969 -2.7808,4.6663 -1.5123,0.9694 -2.9313,1.0813 -4.9102,1.0813 -2.6257,0 -5.3771,-1.3132 -7.4773,-2.9429 l 2.4679,-3.5462 c 1.2748,1.1976 3.1987,2.1882 4.9528,2.3173 1.5471,0.1139 2.8653,-0.2006 2.9593,-1.5417 0.1396,-1.9903 -3.4339,-1.9122 -5.5635,-2.745 -2.4194,-0.9461 -4.2361,-2.4895 -4.2361,-5.3421 0,-1.3182 0.6512,-2.8987 1.8582,-3.9931 1.2077,-1.0944 3.1774,-1.7834 5.4411,-1.7834 2.3476,0 4.8712,1.1649 6.5902,2.5583 z"
         style="fill:#ffffff;fill-rule:evenodd"
         id="path109"
         inkscape:connector-curvature="0" />
      <path
         d="M 399.5353,328.0121 V 313.347 h -5.4539 v -4.1876 h 16.0679 v 4.1876 h -5.3623 v 14.6651 z"
         style="fill:#ffffff;fill-rule:evenodd"
         id="path111"
         inkscape:connector-curvature="0" />
    </g>
    <g
       id="Layer1007">
      <path
         d="m 266.6442,657.6706 h -1.5029 l 10e-4,-0.0482 h -4.2476 c -0.9936,0.9781 -2.8596,1.7072 -4.4111,1.5349 v 4.853 c 1.955,0.095 3.6001,-0.1982 4.5621,-1.3482 h 0.0169 v 18.2655 h 5.5816 z"
         style="fill:#ffffff;fill-rule:evenodd"
         id="path114"
         inkscape:connector-curvature="0" />
      <path
         d="m 283.4375,657.104 c 4.6015,0 8.3331,3.051 8.3331,6.8129 0,1.8545 -0.9077,3.5364 -2.3786,4.765 2.0645,1.3665 3.3847,3.4545 3.3847,5.7947 0,4.1152 -4.0817,7.4527 -9.1154,7.4527 -5.0333,0 -9.1154,-3.3375 -9.1154,-7.4527 0,-2.2471 1.2171,-4.2624 3.1421,-5.6288 -1.5913,-1.2411 -2.5832,-2.9914 -2.5832,-4.9309 0,-3.7619 3.7315,-6.8129 8.3327,-6.8129 z m 0.2238,14.1857 c 1.9624,0 3.554,1.2124 3.554,2.7066 0,1.4942 -1.5916,2.7066 -3.554,2.7066 -1.9623,0 -3.5539,-1.2124 -3.5539,-2.7066 0,-1.4942 1.5916,-2.7066 3.5539,-2.7066 z m 0.009,-9.3324 c 1.6455,0 2.9796,1.1133 2.9796,2.4854 0,1.3722 -1.3341,2.4855 -2.9796,2.4855 -1.6452,0 -2.9793,-1.1133 -2.9793,-2.4855 0,-1.3721 1.3341,-2.4854 2.9793,-2.4854 z"
         style="fill:#ffffff;fill-rule:evenodd"
         id="path116"
         inkscape:connector-curvature="0" />
      <path
         d="m 307.7057,657.104 c 4.6016,0 8.3331,3.051 8.3331,6.8129 0,1.8545 -0.9077,3.5364 -2.3786,4.765 2.0645,1.3665 3.3848,3.4545 3.3848,5.7947 0,4.1152 -4.0818,7.4527 -9.1155,7.4527 -5.0333,0 -9.1154,-3.3375 -9.1154,-7.4527 0,-2.2471 1.2171,-4.2624 3.1421,-5.6288 -1.5913,-1.2411 -2.5832,-2.9914 -2.5832,-4.9309 0,-3.7619 3.7315,-6.8129 8.3327,-6.8129 z m 0.2238,14.1857 c 1.9624,0 3.554,1.2124 3.554,2.7066 0,1.4942 -1.5916,2.7066 -3.554,2.7066 -1.9623,0 -3.5539,-1.2124 -3.5539,-2.7066 0,-1.4942 1.5916,-2.7066 3.5539,-2.7066 z m 0.009,-9.3324 c 1.6455,0 2.9796,1.1133 2.9796,2.4854 0,1.3722 -1.3341,2.4855 -2.9796,2.4855 -1.6452,0 -2.9793,-1.1133 -2.9793,-2.4855 0,-1.3721 1.3341,-2.4854 2.9793,-2.4854 z"
         style="fill:#ffffff;fill-rule:evenodd"
         id="path118"
         inkscape:connector-curvature="0" />
      <path
         d="m 331.974,657.104 c 4.6015,0 8.3331,3.051 8.3331,6.8129 0,1.8545 -0.9077,3.5364 -2.3787,4.765 2.0645,1.3665 3.3848,3.4545 3.3848,5.7947 0,4.1152 -4.0818,7.4527 -9.1154,7.4527 -5.0333,0 -9.1155,-3.3375 -9.1155,-7.4527 0,-2.2471 1.2172,-4.2624 3.1421,-5.6288 -1.5912,-1.2411 -2.5832,-2.9914 -2.5832,-4.9309 0,-3.7619 3.7316,-6.8129 8.3328,-6.8129 z m 0.2238,14.1857 c 1.9623,0 3.5539,1.2124 3.5539,2.7066 0,1.4942 -1.5916,2.7066 -3.5539,2.7066 -1.9624,0 -3.554,-1.2124 -3.554,-2.7066 0,-1.4942 1.5916,-2.7066 3.554,-2.7066 z m 0.009,-9.3324 c 1.6455,0 2.9796,1.1133 2.9796,2.4854 0,1.3722 -1.3341,2.4855 -2.9796,2.4855 -1.6452,0 -2.9792,-1.1133 -2.9792,-2.4855 0,-1.3721 1.334,-2.4854 2.9792,-2.4854 z"
         style="fill:#ffffff;fill-rule:evenodd"
         id="path120"
         inkscape:connector-curvature="0" />
    </g>
  </g>
</svg>
