<?xml version="1.0" encoding="UTF-8"?>
<svg width="27.005mm" height="29.446mm" version="1.1" viewBox="0 0 27.005 29.446" xmlns="http://www.w3.org/2000/svg" xmlns:cc="http://creativecommons.org/ns#" xmlns:dc="http://purl.org/dc/elements/1.1/" xmlns:rdf="http://www.w3.org/1999/02/22-rdf-syntax-ns#"><defs><clipPath id="clipPath36"><path d="m30.288 476.64h77.043v87.093h-77.043z"/></clipPath></defs><metadata><rdf:RDF><cc:Work rdf:about=""><dc:format>image/svg+xml</dc:format><dc:type rdf:resource="http://purl.org/dc/dcmitype/StillImage"/><dc:title/></cc:Work></rdf:RDF></metadata><g transform="translate(-44.706 -150.88)"><g transform="matrix(.35278 0 0 -.35278 17.175 283.8)"><g transform="translate(47.542 -186.82)"><g clip-path="url(#clipPath36)"><g transform="translate(107.05 522.11)"><path d="m0 0c0-21.139-17.136-38.275-38.275-38.275-21.138 0-38.274 17.136-38.274 38.275 0 21.138 17.136 38.274 38.274 38.274 21.139 0 38.275-17.136 38.275-38.274" fill="#fff"/></g><g transform="translate(105.06 522.17)"><path d="m0 0c0-19.994-16.208-36.202-36.202-36.202-19.995 0-36.203 16.208-36.203 36.202s16.208 36.202 36.203 36.202c19.994 0 36.202-16.208 36.202-36.202" fill="#1f385a"/></g><g transform="translate(101.77 522.17)"><path d="m0 0c0-18.175-14.734-32.909-32.91-32.909-18.175 0-32.909 14.734-32.909 32.909s14.734 32.909 32.909 32.909c18.176 0 32.91-14.734 32.91-32.909" fill="#fff"/></g><g transform="translate(99.598 522.17)"><path d="m0 0c0-16.977-13.762-30.74-30.74-30.74-16.977 0-30.74 13.763-30.74 30.74s13.763 30.74 30.74 30.74c16.978 0 30.74-13.763 30.74-30.74" fill="#ffca35"/></g><g transform="translate(71.004 531.27)"><path d="m0 0h1.585c0.888 0 1.539-0.158 1.789-0.434 0.135-0.15 0.434-0.662 0.279-2.166l-1.399-13.282c-0.231-2.137-0.988-2.823-3.115-2.823h-1.102zm33.558 16.312-6.596 10.989-1.753-0.572c-0.129-0.041-1.079-0.355-2.657-0.98l-5.551 6.594-1.524-0.561c-0.544-0.2-13.478-5.046-25.954-17.575l-1.452-1.458-6.825-0.074-1.142-9.894-0.511-0.78c-10.217-15.452-13.402-43.039-14.789-53.125h4.033c0.026 0.153 3.653 17.611 14.672 33.028l-3.458-33.031h14.62l2.095 20.101h3.422c9.976 0 15.572 4.899 16.634 14.572l1.311 12.506c0.56 5.526-0.413 9.589-2.972 12.42-0.11 0.122-0.227 0.237-0.342 0.354 4.999 2.588 10.355 4.808 15.954 6.597z" fill="#fff"/></g><g transform="translate(69.239 543.99)"><path d="m0 0c7.959 5.836 11.416 7.853 21.71 12.628l-3.54 4.332s-12.837-4.651-25.094-16.96z" fill="#1f385a"/></g><g transform="translate(57.148 532.07)"><path d="m0 0h-4.486c-4.77-7.276-8.728-16.142-10.751-26.846 0 0 4.783 13.525 15.482 26.821z" fill="#1f385a"/></g><g transform="translate(83.653 541.6)"><path d="m0 0c5.287 2.851 10.975 5.266 17.548 7.366l-4.142 6.901s-10.403-3.232-22.726-11.879c4.007-0.023 6.945-0.916 9.32-2.388" fill="#1f385a"/></g><g transform="translate(56.406 527.82)"><path d="m0 0c-9.12-10.828-16.476-25.247-17.627-44.031 0 0 2.844 16.928 16.608 34.299z" fill="#1f385a"/></g><g transform="translate(75.689 515.21)"><path d="m0 0c-0.349-3.233-2.01-4.893-5.418-4.893h-3.671l2.448 23.335h3.67c3.409 0 4.72-1.748 4.371-5.157zm-1.807 26.627h-19.473l-0.896-8.19 5.594 5e-3 -5.353-51.127h9.963l2.096 20.101h5.507c9.351 0 13.46 4.544 14.332 12.498l1.312 12.498c0.875 8.652-2.244 14.215-13.082 14.215" fill="#1f385a"/></g></g></g></g></g></svg>
