<?xml version="1.0" encoding="UTF-8" standalone="no"?>
<svg
   width="299.99472"
   height="300"
   version="1.1"
   viewBox="0 0 299.99472 300"
   id="svg22"
   sodipodi:docname="Paksi_FC_(Logo).svg"
   inkscape:version="1.3 (0e150ed6c4, 2023-07-21)"
   xmlns:inkscape="http://www.inkscape.org/namespaces/inkscape"
   xmlns:sodipodi="http://sodipodi.sourceforge.net/DTD/sodipodi-0.dtd"
   xmlns="http://www.w3.org/2000/svg"
   xmlns:svg="http://www.w3.org/2000/svg"
   xmlns:rdf="http://www.w3.org/1999/02/22-rdf-syntax-ns#"
   xmlns:cc="http://creativecommons.org/ns#"
   xmlns:dc="http://purl.org/dc/elements/1.1/">
  <defs
     id="defs22" />
  <sodipodi:namedview
     id="namedview22"
     pagecolor="#ffffff"
     bordercolor="#000000"
     borderopacity="0.25"
     inkscape:showpageshadow="2"
     inkscape:pageopacity="0.0"
     inkscape:pagecheckerboard="0"
     inkscape:deskcolor="#d1d1d1"
     inkscape:zoom="1.09875"
     inkscape:cx="-62.798635"
     inkscape:cy="222.5256"
     inkscape:window-width="1920"
     inkscape:window-height="1057"
     inkscape:window-x="-8"
     inkscape:window-y="-8"
     inkscape:window-maximized="1"
     inkscape:current-layer="svg22" />
  <metadata
     id="metadata1">
    <rdf:RDF>
      <cc:Work
         rdf:about="">
        <dc:format>image/svg+xml</dc:format>
        <dc:type
           rdf:resource="http://purl.org/dc/dcmitype/StillImage" />
      </cc:Work>
    </rdf:RDF>
  </metadata>
  <g
     transform="matrix(2.0000222,0,0,-2.0000222,-28.349803,328.96057)"
     id="g22">
    <g
       transform="matrix(0.26458,0,0,0.26458,10.423,10.649)"
       id="g21">
      <circle
         transform="scale(1,-1)"
         cx="297.64001"
         cy="-297.94"
         r="283.45999"
         fill="#ffffff"
         id="circle1" />
      <g
         transform="scale(0.1)"
         id="g20">
        <g
           fill="#53b73c"
           fill-rule="evenodd"
           id="g3">
          <path
             d="M 2976.4,5814.1 C 4541.7,5814.1 5811,4544.7 5811,2979.5 5811,1414.3 4541.6,144.9 2976.4,144.9 1411.1,144.9 141.8,1414.3 141.8,2979.5 c 0,1565.2 1269.4,2834.6 2834.6,2834.6 z m 0,-83.47 c 1519.2,0 2751.2,-1232 2751.2,-2751.2 0,-1519.2 -1232,-2751.2 -2751.2,-2751.2 -1519.2,0 -2751.2,1232 -2751.2,2751.2 0,1519.2 1232,2751.2 2751.2,2751.2"
             id="path1"
             style="fill:#187b2a;fill-opacity:1" />
          <path
             d="m 2976.4,5647.2 c 1473.1,0 2667.7,-1194.6 2667.7,-2667.7 0,-1473.1 -1194.6,-2667.7 -2667.7,-2667.7 -1473.1,0 -2667.7,1194.6 -2667.7,2667.7 0,1473.1 1194.6,2667.7 2667.7,2667.7 z m 0,-556.48 c 1165.8,0 2111.2,-945.42 2111.2,-2111.2 0,-1165.78 -945.42,-2111.2 -2111.2,-2111.2 -1165.78,0 -2111.2,945.42 -2111.2,2111.2 0,1165.78 945.43,2111.2 2111.2,2111.2"
             id="path2"
             style="fill:#187b2a;fill-opacity:1" />
          <path
             d="m 1935.9,2024 h 465.06 L 1720.97,3824.4 2159.06,4870 h 1634.8 L 4231.77,3824.4 3552.65,2024 h 466.66 v -788.81 h -2083.4 z m 315.71,2706.9 -380.93,-909.2 678.89,-1797.4 h 854.44 l 678.01,1797.4 -380.77,909.22 z m -176.6,-2846 h 1805.1 v -510.57 h -1805.1 v 510.57"
             id="path3"
             style="fill:#187b2a;fill-opacity:1" />
        </g>
        <path
           d="m 2976.4,3860.1 c 309.25,0 560.04,-250.79 560.04,-560.04 0,-309.25 -250.79,-560.04 -560.04,-560.04 -309.25,0 -560.04,250.79 -560.04,560.04 0,309.25 250.79,560.04 560.04,560.04 z m 359.09,-520.85 -139.98,-18.55 -116.73,-215.44 60.96,-127.52 151.58,-7.94 133.68,246.7 z m -145.72,-2.47 143.66,19.04 54.4,141.71 -193.32,203.37 -144.4,-47.2 -26.26,-142.39 z m 215.36,159.23 -56.31,-146.7 92.38,-126.69 71.45,-10.45 c 4.66,28.61 7.09,57.98 7.09,87.89 0,80.07 -17.36,156.12 -48.52,224.58 z m -280.51,-525.35 -59.94,125.4 -243.53,44.92 -100.84,-95.86 39.29,-146.62 275.94,-50.89 z m 170.61,-17.79 -156.92,8.22 -91.95,-127 12.14,-71.19 c 108.64,16.5 206.73,65.22 284.26,136.09 z m -586.32,104.45 102.34,97.29 -32.2,242.9 -124.27,67.33 -127.3,-82.66 36.86,-278.16 z m 35.8,-167.76 -40.67,151.78 -149.21,48.2 -63.92,-33.53 c 48.32,-95.83 124.19,-175.45 217.18,-228.42 z m -81.85,589.89 127.3,-68.97 217.27,103.86 26.29,142.53 -117.97,95.52 -253.15,-121.01 z m -148.48,-85.87 131.78,85.57 -0.27,156.8 -51.51,50.3 c -74.91,-74.11 -128.41,-169.82 -150.32,-276.99 z m 408.17,374.79 122.11,-98.88 149.04,48.71 31.98,64.66 c -74.68,38.68 -159.45,60.54 -249.28,60.54 -20.51,0.01 -40.73,-1.18 -60.65,-3.39 l 6.8,-71.64"
           fill="#231f20"
           fill-rule="evenodd"
           id="path4" />
        <g
           fill="#ffffff"
           id="g11">
          <path
             d="m 1134.7,4869.4 99.6,83.59 c 26.95,22.61 49.48,37.96 67.49,45.82 18.08,7.93 34.1,10.98 47.98,9.11 14.03,-1.9 27.14,-7.43 39.2,-16.59 12.13,-9.24 28.15,-25.72 48.14,-49.55 l 27.79,-33.12 c 20.39,-24.31 32.78,-44.11 37.1,-59.35 4.3,-15.39 2.21,-31.63 -6.14,-48.88 -8.41,-17.19 -23.41,-34.82 -44.98,-52.93 l -26.55,-22.27 128.54,-153.19 -98.98,-83.05 z m 153.55,18 81.23,-96.81 c 2.94,2.2 5.41,4.14 7.41,5.83 9.16,7.66 13.52,15.16 13.35,22.54 -0.24,7.44 -6.28,18.23 -18.06,32.26 l -26.25,31.28 c -10.9,12.99 -20.04,19.82 -27.36,20.24 -7.39,0.5 -17.49,-4.57 -30.32,-15.34"
             id="path5" />
          <path
             d="m 2175.1,5486.4 223.75,-449.45 -125.76,-40.86 -33.68,82.96 -44.1,-14.33 20.32,-87.3 -127.16,-41.32 -91.02,492.58 z m 33.65,-324.83 c -23.65,51.42 -51.31,115.54 -83.1,192.07 16.9,-94.36 30.58,-162.91 41.08,-205.73 l 42.02,13.66"
             id="path6" />
          <path
             d="m 3255.7,5610.1 -77.82,-222.84 76.17,-273.8 -133.37,2.32 -48.42,213.74 -3.71,-212.82 -129.18,2.25 8.67,496.53 129.18,-2.26 -3.37,-192.94 60.63,191.94 121.22,-2.12"
             id="path7" />
          <path
             d="m 4145.5,5175.9 -109.51,48.76 14.95,33.57 c 6.98,15.7 10.01,26.38 9.16,31.91 -0.86,5.55 -4.61,9.73 -11.21,12.67 -7.07,3.16 -13.71,2.67 -19.95,-1.54 -6.18,-4.12 -11.92,-12.12 -17.15,-23.88 -6.74,-15.12 -9.83,-27.49 -9.13,-36.97 0.52,-9.39 7.62,-23.56 21.03,-42.6 38.63,-54.56 60.26,-94.79 65.04,-120.87 4.78,-26.08 -2.79,-61.34 -22.59,-105.81 -14.39,-32.34 -28.82,-54.45 -43.19,-66.39 -14.37,-11.94 -34.76,-18.33 -60.97,-19.04 -26.32,-0.66 -53.81,5.28 -82.6,18.1 -31.56,14.06 -55.85,32.08 -72.82,53.97 -17.06,21.91 -24.92,43.64 -23.59,65.16 1.38,21.62 9.6,49.37 24.76,83.42 l 13.2,29.65 109.52,-48.77 -24.57,-55.18 c -7.58,-17.03 -10.91,-28.61 -10.02,-34.85 1.03,-6.19 5.38,-11.11 13.22,-14.59 7.84,-3.5 15.04,-3.04 21.63,1.48 6.55,4.41 12.56,12.75 17.97,24.89 11.88,26.69 16.04,45.81 12.43,57.27 -3.8,11.55 -16.17,33.45 -36.88,65.7 -20.68,32.59 -33.83,55.3 -39.48,68.35 -5.55,13.02 -8.09,28.7 -7.4,46.97 0.58,18.3 6.34,39.47 17.07,63.57 15.46,34.71 31.19,58.2 47.24,70.3 15.96,12.16 35.88,18.3 59.72,18.58 23.8,0.17 49.76,-5.89 77.79,-18.36 30.7,-13.67 54.6,-30.27 71.73,-49.7 17.19,-19.58 25.9,-38.36 26.26,-56.62 0.29,-18.12 -7.63,-45.2 -23.69,-81.25 l -7.97,-17.9"
             id="path8" />
          <path
             d="m 4770.4,4910.3 -319.2,-380.42 -98.98,83.05 319.21,380.41 98.97,-83.04"
             id="path9" />
          <path
             d="m 2622.8,868.78 216.59,-30.437 -13.83,-98.395 -88.64,12.457 -13.11,-93.211 78.9,-11.086 -13.15,-93.625 -78.91,11.09 -29.02,-206.53 -127.95,17.98 69.12,491.76"
             id="path10" />
          <path
             d="m 3561.2,692.86 -126.73,-24.636 -16.5,84.898 c -4.79,24.66 -9.22,39.805 -13.09,45.445 -3.86,5.543 -10.42,7.469 -19.67,5.672 -10.48,-2.039 -16.34,-7.015 -17.78,-14.976 -1.31,-8.047 0.37,-24.36 5.16,-49.02 l 44.01,-226.41 c 4.62,-23.754 9.05,-38.887 13.22,-45.535 4.3,-6.742 11.27,-9.117 21.14,-7.203 9.45,1.84 14.92,6.633 16.37,14.488 1.48,7.754 -0.27,25.016 -5.47,51.738 l -11.86,61.051 126.72,24.629 3.68,-18.91 c 9.79,-50.363 13.15,-86.824 10.14,-109.27 -2.99,-22.449 -15.22,-44.023 -36.5,-64.586 -21.29,-20.566 -49.84,-34.429 -85.5,-41.363 -37.2,-7.234 -69.15,-6.402 -95.82,2.383 -26.67,8.793 -46.31,24.277 -58.74,46.5 -12.45,22.324 -23.3,57.332 -32.59,105.12 l -27.67,142.35 c -6.83,35.144 -10.72,61.703 -11.77,79.73 -0.95,18.055 2.84,36.395 11.72,54.969 8.76,18.551 22.81,34.621 42.16,48.086 19.38,13.367 42.82,22.824 70.26,28.164 37.41,7.273 69.66,5.965 96.71,-3.707 27.07,-9.777 46.5,-24.664 58.41,-44.746 11.79,-20.106 22.13,-52.977 30.98,-98.508 l 9.01,-46.348"
             id="path11" />
        </g>
        <g
           fill="#53b73c"
           id="g19">
          <path
             d="m 2501.4,4147 v -84.61 h -272.45 v 70.81 c 80.74,131.88 128.65,213.57 143.91,244.94 15.16,31.38 22.8,55.85 22.8,73.43 0,13.48 -2.3,23.53 -6.9,30.12 -4.6,6.69 -11.61,10.04 -21.02,10.04 -9.31,0 -16.32,-3.76 -20.92,-11.09 -4.6,-7.32 -6.9,-21.96 -6.9,-43.82 v -47.17 h -110.97 v 18.09 c 0,27.72 1.47,49.68 4.29,65.68 2.92,16.01 9.94,31.8 21.12,47.38 11.3,15.48 25.84,27.3 43.83,35.25 17.98,7.95 39.53,11.92 64.63,11.92 49.26,0 86.5,-12.23 111.7,-36.61 25.31,-24.47 37.86,-55.32 37.86,-92.66 0,-28.45 -7.11,-58.46 -21.23,-90.16 -14.22,-31.58 -56.06,-98.83 -125.51,-201.54 h 135.76"
             id="path12"
             style="fill:#187b2a;fill-opacity:1" />
          <path
             d="m 2923.1,4390.6 v -165.46 c 0,-37.65 -2.09,-64.95 -6.17,-82.1 -4.07,-17.26 -12.55,-33.26 -25.41,-48.11 -12.87,-14.95 -28.35,-25.73 -46.54,-32.22 -18.21,-6.59 -38.49,-9.82 -60.98,-9.82 -29.6,0 -54.28,3.45 -73.84,10.25 -19.66,6.9 -35.24,17.57 -46.85,32 -11.72,14.54 -19.98,29.8 -24.9,45.81 -4.91,16.1 -7.31,41.52 -7.31,76.45 v 173.2 c 0,45.49 3.97,79.59 11.81,102.29 7.85,22.69 23.43,40.89 46.86,54.59 23.42,13.71 51.77,20.5 85.03,20.5 27.19,0 51.46,-4.7 72.89,-14.22 21.44,-9.52 37.56,-21.13 48.12,-34.83 10.66,-13.7 17.88,-29.08 21.64,-46.23 3.77,-17.15 5.65,-44.55 5.65,-82.1 z m -123.83,41.63 c 0,26.35 -1.25,42.88 -3.76,49.47 -2.62,6.69 -8.58,10.04 -18,10.04 -9.2,0 -15.26,-3.56 -18.19,-10.67 -2.93,-7.01 -4.39,-23.32 -4.39,-48.84 v -242.02 c 0,-28.87 1.36,-46.23 4.08,-52.09 2.71,-5.96 8.78,-8.89 17.88,-8.89 9.2,0 15.26,3.46 18.1,10.36 2.92,7.01 4.28,22.59 4.28,46.96 v 245.68"
             id="path13"
             style="fill:#187b2a;fill-opacity:1" />
          <path
             d="m 3309.8,4390.6 v -165.46 c 0,-37.65 -2.09,-64.95 -6.16,-82.1 -4.09,-17.26 -12.56,-33.26 -25.43,-48.11 -12.86,-14.95 -28.34,-25.73 -46.53,-32.22 -18.21,-6.59 -38.49,-9.82 -60.98,-9.82 -29.6,0 -54.28,3.45 -73.84,10.25 -19.66,6.9 -35.24,17.57 -46.86,32 -11.71,14.54 -19.97,29.8 -24.89,45.81 -4.91,16.1 -7.31,41.52 -7.31,76.45 v 173.2 c 0,45.49 3.96,79.59 11.81,102.29 7.84,22.69 23.42,40.89 46.85,54.59 23.43,13.71 51.78,20.5 85.04,20.5 27.19,0 51.46,-4.7 72.89,-14.22 21.44,-9.52 37.55,-21.13 48.12,-34.83 10.66,-13.7 17.88,-29.08 21.64,-46.23 3.77,-17.15 5.65,-44.55 5.65,-82.1 z m -123.84,41.63 c 0,26.35 -1.25,42.88 -3.76,49.47 -2.61,6.69 -8.57,10.04 -17.99,10.04 -9.2,0 -15.27,-3.56 -18.19,-10.67 -2.93,-7.01 -4.4,-23.32 -4.4,-48.84 v -242.02 c 0,-28.87 1.36,-46.23 4.09,-52.09 2.71,-5.96 8.78,-8.89 17.87,-8.89 9.21,0 15.27,3.46 18.1,10.36 2.93,7.01 4.28,22.59 4.28,46.96 v 245.68"
             id="path14"
             style="fill:#187b2a;fill-opacity:1" />
          <path
             d="m 3689.1,4426.6 h -123.83 c 0,23.11 -0.21,37.65 -0.73,43.71 -0.53,6.07 -2.94,11.09 -7.33,15.17 -4.38,4.07 -10.45,6.17 -17.99,6.17 -6.27,0 -11.5,-1.99 -15.58,-5.86 -4.08,-3.87 -6.48,-8.89 -7.11,-15.06 -0.63,-6.07 -0.83,-18.41 -0.83,-37.02 v -79.07 c 6.27,13.28 15.57,23.22 27.81,29.91 12.24,6.59 27.41,9.93 45.39,9.93 22.7,0 42.68,-6.17 60.04,-18.4 17.36,-12.24 28.34,-26.99 33.05,-44.14 4.71,-17.16 7.11,-40.37 7.11,-69.55 v -39.53 c 0,-34.73 -1.36,-60.56 -3.97,-77.51 -2.73,-16.94 -9.84,-32.63 -21.34,-47.06 -11.51,-14.33 -27.4,-25.52 -47.48,-33.58 -20.09,-7.94 -43.61,-11.91 -70.29,-11.91 -33.36,0 -60.66,4.6 -81.89,13.8 -21.23,9.21 -37.65,22.38 -49.16,39.64 -11.5,17.26 -18.3,35.45 -20.18,54.38 -1.99,19.04 -2.93,55.96 -2.93,110.66 v 68.61 c 0,59.09 0.84,98.52 2.62,118.5 1.67,19.87 8.78,38.7 21.23,56.48 12.55,17.78 29.49,31.16 51.04,39.95 21.54,8.89 46.43,13.39 74.67,13.39 34.73,0 63.18,-5.65 85.45,-16.84 22.28,-11.3 38.17,-27.09 47.79,-47.48 9.63,-20.51 14.44,-46.23 14.44,-77.29 z m -123.83,-154.69 c 0,17.57 -1.88,29.59 -5.86,36.18 -3.87,6.49 -10.14,9.73 -18.93,9.73 -8.58,0 -14.85,-3.04 -18.83,-9.31 -3.97,-6.27 -5.95,-18.4 -5.95,-36.6 v -89.74 c 0,-21.85 1.88,-36.19 5.64,-42.99 3.76,-6.69 10.04,-10.04 18.83,-10.04 5.33,0 10.76,2.62 16.52,7.75 5.76,5.22 8.58,19.24 8.58,42.14 v 92.88"
             id="path15"
             style="fill:#187b2a;fill-opacity:1" />
          <path
             d="m 2626.4,1780.6 v -324.39 h -80.9 v 173.93 c 0,25.09 -0.62,40.21 -1.85,45.27 -1.16,5.06 -4.52,8.89 -9.92,11.56 -5.4,2.6 -17.44,3.9 -36.18,3.9 h -8 v 37.82 c 39.12,8.41 68.87,25.72 89.19,51.91 h 47.66"
             id="path16"
             style="fill:#187b2a;fill-opacity:1" />
          <path
             d="m 2731.7,1542.4 h 80.98 c 0,-15.12 0.14,-24.63 0.55,-28.59 0.41,-3.9 2.05,-7.25 4.92,-9.92 2.88,-2.67 6.77,-3.96 11.7,-3.96 4.17,0 7.59,1.23 10.26,3.76 2.67,2.52 4.17,5.81 4.51,9.84 0.34,3.97 0.48,12.11 0.48,24.21 v 51.71 c -3.97,-8.68 -9.98,-15.18 -18.06,-19.49 -8,-4.38 -17.92,-6.57 -29.81,-6.57 -14.84,0 -27.91,4.04 -39.26,12.04 -11.35,8 -18.61,17.64 -21.68,28.86 -3.08,11.22 -4.59,26.4 -4.59,45.48 v 25.86 c 0,22.7 0.89,39.6 2.67,50.68 1.84,11.07 6.5,21.34 13.95,30.78 7.46,9.43 17.86,16.75 31.05,21.95 13.27,5.19 28.59,7.79 46.1,7.79 21.61,0 39.4,-3.01 53.28,-9.02 13.89,-6.02 24.69,-14.64 32.28,-25.92 7.59,-11.29 12.04,-23.19 13.2,-35.57 1.23,-12.45 1.85,-36.45 1.85,-72.16 v -45.07 c 0,-38.64 -0.55,-64.42 -1.64,-77.42 -1.02,-13.06 -5.68,-25.37 -13.89,-37 -8.2,-11.63 -19.35,-20.31 -33.38,-26.12 -14.01,-5.82 -30.22,-8.76 -48.69,-8.76 -22.84,0 -41.51,3.69 -56.02,11.01 -14.49,7.39 -24.89,17.72 -31.25,31.05 -6.36,13.4 -9.51,30.23 -9.51,50.55 z m 80.98,101.15 c 0,-13.61 1.71,-22.02 5.27,-25.24 3.56,-3.21 7.18,-4.79 10.94,-4.79 5.61,0 9.71,2.05 12.31,6.09 2.6,4.11 3.9,12.04 3.9,23.94 v 58.75 c 0,14.29 -1.23,23.6 -3.7,28.04 -2.45,4.38 -6.56,6.64 -12.3,6.64 -3.49,0 -7.11,-1.72 -10.81,-5.13 -3.76,-3.42 -5.61,-12.59 -5.61,-27.56 v -60.74"
             id="path17"
             style="fill:#187b2a;fill-opacity:1" />
          <path
             d="m 3225,1780.6 v -51.91 h -100.4 v -55.06 c 12.58,14.84 28.72,22.23 48.49,22.23 22.3,0 39.19,-6.22 50.61,-18.74 11.42,-12.51 17.1,-36.52 17.1,-72.02 v -46.3 c 0,-22.98 -1.1,-39.88 -3.28,-50.61 -2.19,-10.74 -6.91,-20.66 -14.16,-29.82 -7.18,-9.17 -17.24,-16.21 -30.09,-21.06 -12.93,-4.86 -28.66,-7.32 -47.19,-7.32 -20.87,0 -39.26,3.62 -55.13,10.94 -15.87,7.25 -27.15,18.12 -33.86,32.55 -6.7,14.44 -10.05,36.73 -10.05,66.89 v 17.64 h 80.98 v -20.24 c 0,-20.93 0.75,-35.83 2.19,-44.65 1.5,-8.83 6.56,-13.2 15.25,-13.2 3.97,0 7.25,1.23 9.71,3.76 2.46,2.52 3.83,5.26 4.03,8.2 0.14,2.94 0.42,15.73 0.69,38.3 v 64.29 c 0,12.18 -1.3,20.45 -3.83,24.9 -2.53,4.38 -6.78,6.57 -12.58,6.57 -3.77,0 -6.91,-1.1 -9.44,-3.36 -2.53,-2.32 -4.17,-4.71 -4.93,-7.31 -0.75,-2.61 -1.09,-8.69 -1.09,-18.13 h -80.16 l 3.42,163.46 H 3225"
             id="path18"
             style="fill:#187b2a;fill-opacity:1" />
          <path
             d="m 3516.9,1511.5 v -55.33 h -178.17 v 46.3 c 52.8,86.25 84.13,139.66 94.12,160.18 9.91,20.52 14.9,36.52 14.9,48.01 0,8.83 -1.5,15.39 -4.51,19.7 -3.01,4.38 -7.59,6.57 -13.75,6.57 -6.08,0 -10.67,-2.47 -13.68,-7.25 -3.01,-4.79 -4.51,-14.37 -4.51,-28.66 v -30.85 h -72.57 v 11.84 c 0,18.12 0.96,32.48 2.81,42.95 1.91,10.46 6.49,20.79 13.81,30.98 7.39,10.12 16.9,17.85 28.66,23.05 11.76,5.19 25.85,7.79 42.27,7.79 32.22,0 56.56,-8 73.04,-23.93 16.55,-16 24.76,-36.18 24.76,-60.6 0,-18.6 -4.65,-38.23 -13.89,-58.96 -9.29,-20.65 -36.66,-64.63 -82.06,-131.79 h 88.77"
             id="path19"
             style="fill:#187b2a;fill-opacity:1" />
        </g>
      </g>
    </g>
  </g>
</svg>
